<?xml version="1.0" encoding="UTF-8" standalone="no"?>
<!DOCTYPE svg PUBLIC "-//W3C//DTD SVG 1.1//EN" "http://www.w3.org/Graphics/SVG/1.1/DTD/svg11.dtd">
<svg version="1.1" xmlns="http://www.w3.org/2000/svg" xmlns:xlink="http://www.w3.org/1999/xlink" preserveAspectRatio="xMidYMid meet" viewBox="596.9769902912622 18.659999999999997 27.385631067960958 25.35650485436893" width="23.39" height="21.36"><defs><path d="M620.28 37.87L620.51 37.96L620.72 38.09L620.9 38.26L621.06 38.44L621.19 38.66L621.28 38.89L621.34 39.14L621.36 39.4L621.34 39.66L621.28 39.91L621.19 40.15L621.06 40.36L620.9 40.54L620.72 40.71L620.51 40.84L620.28 40.93L620.04 41L619.78 41.02L599.56 41.02L599.3 41L599.06 40.93L598.83 40.84L598.63 40.71L598.44 40.54L598.28 40.36L598.15 40.15L598.06 39.91L598 39.66L597.98 39.4L598 39.14L598.06 38.89L598.15 38.66L598.28 38.44L598.44 38.26L598.63 38.09L598.83 37.96L599.06 37.87L599.3 37.81L599.56 37.78L619.78 37.78L620.04 37.81L620.28 37.87ZM620.28 28.8L620.51 28.9L620.72 29.03L620.9 29.19L621.06 29.38L621.19 29.59L621.28 29.83L621.34 30.08L621.36 30.34L621.34 30.6L621.28 30.85L621.19 31.08L621.06 31.29L620.9 31.48L620.72 31.64L620.51 31.77L620.28 31.87L620.04 31.93L619.78 31.95L599.56 31.95L599.3 31.93L599.06 31.87L598.83 31.77L598.63 31.64L598.44 31.48L598.28 31.29L598.15 31.08L598.06 30.85L598 30.6L597.98 30.34L598 30.08L598.06 29.83L598.15 29.59L598.28 29.38L598.44 29.19L598.63 29.03L598.83 28.9L599.06 28.8L599.3 28.74L599.56 28.72L619.78 28.72L620.04 28.74L620.28 28.8ZM620.28 19.74L620.51 19.84L620.72 19.97L620.9 20.13L621.06 20.32L621.19 20.54L621.28 20.77L621.34 21.01L621.36 21.28L621.34 21.54L621.28 21.79L621.19 22.02L621.06 22.23L620.9 22.42L620.72 22.58L620.51 22.71L620.28 22.81L620.04 22.87L619.78 22.89L599.56 22.89L599.3 22.87L599.06 22.81L598.83 22.71L598.63 22.58L598.44 22.42L598.28 22.23L598.15 22.02L598.06 21.79L598 21.54L597.98 21.28L598 21.01L598.06 20.77L598.15 20.54L598.28 20.32L598.44 20.13L598.63 19.97L598.83 19.84L599.06 19.74L599.3 19.68L599.56 19.66L619.78 19.66L620.04 19.68L620.28 19.74Z" id="aiPxlZ0wq"></path></defs><g><g><use xlink:href="#aiPxlZ0wq" opacity="1" fill="#ffffff" fill-opacity="1"></use><g><use xlink:href="#aiPxlZ0wq" opacity="1" fill-opacity="0" stroke="#000000" stroke-width="1" stroke-opacity="0"></use></g></g></g></svg>